<?xml version="1.0" encoding="UTF-8"?>
<mxfile host="app.diagrams.net" modified="2024-07-28T17:57:39.052Z" agent="Mozilla/5.0 (Macintosh; Intel Mac OS X 10_15_7) AppleWebKit/537.36 (KHTML, like Gecko) Chrome/126.0.0.0 Safari/537.36" etag="I5xkdP9k16nAgPZlZCfA" version="24.7.3" type="google">
  <diagram name="Page-1" id="ZI6fwLE05P7FluuH5HYb">
    <mxGraphModel dx="3100" dy="2423" grid="1" gridSize="10" guides="1" tooltips="1" connect="1" arrows="1" fold="1" page="1" pageScale="1" pageWidth="850" pageHeight="1100" math="0" shadow="0">
      <root>
        <mxCell id="0" />
        <mxCell id="1" parent="0" />
        <mxCell id="qzLRw00x2EBnMvrKDf3v-9" style="edgeStyle=orthogonalEdgeStyle;rounded=0;orthogonalLoop=1;jettySize=auto;html=1;exitX=1;exitY=0.5;exitDx=0;exitDy=0;entryX=0.25;entryY=1;entryDx=0;entryDy=0;endArrow=none;endFill=0;curved=1;" parent="1" source="QJvTNlsDnHP9_tK7JuTX-13" target="f8IEIEPdvuGG4pA07hkH-3" edge="1">
          <mxGeometry relative="1" as="geometry">
            <Array as="points">
              <mxPoint x="-570" y="280" />
              <mxPoint x="-570" y="200" />
            </Array>
          </mxGeometry>
        </mxCell>
        <mxCell id="QJvTNlsDnHP9_tK7JuTX-13" value="password" style="ellipse;whiteSpace=wrap;html=1;align=center;" parent="1" vertex="1">
          <mxGeometry x="-725" y="260" width="100" height="40" as="geometry" />
        </mxCell>
        <mxCell id="a81ULzeU6N-q9SvySfn3-10" style="edgeStyle=orthogonalEdgeStyle;rounded=0;orthogonalLoop=1;jettySize=auto;html=1;exitX=1;exitY=0.5;exitDx=0;exitDy=0;entryX=0.5;entryY=1;entryDx=0;entryDy=0;curved=1;endArrow=none;endFill=0;" parent="1" source="QJvTNlsDnHP9_tK7JuTX-16" target="f8IEIEPdvuGG4pA07hkH-3" edge="1">
          <mxGeometry relative="1" as="geometry" />
        </mxCell>
        <mxCell id="QJvTNlsDnHP9_tK7JuTX-16" value="firstName" style="ellipse;whiteSpace=wrap;html=1;align=center;" parent="1" vertex="1">
          <mxGeometry x="-725" y="310" width="100" height="40" as="geometry" />
        </mxCell>
        <mxCell id="qzLRw00x2EBnMvrKDf3v-11" style="edgeStyle=orthogonalEdgeStyle;rounded=0;orthogonalLoop=1;jettySize=auto;html=1;entryX=1;entryY=1;entryDx=0;entryDy=0;curved=1;endArrow=none;endFill=0;" parent="1" source="QJvTNlsDnHP9_tK7JuTX-17" target="f8IEIEPdvuGG4pA07hkH-3" edge="1">
          <mxGeometry relative="1" as="geometry" />
        </mxCell>
        <mxCell id="QJvTNlsDnHP9_tK7JuTX-17" value="username" style="ellipse;whiteSpace=wrap;html=1;align=center;" parent="1" vertex="1">
          <mxGeometry x="-505" y="210" width="100" height="40" as="geometry" />
        </mxCell>
        <mxCell id="QJvTNlsDnHP9_tK7JuTX-21" value="ISA" style="shape=rhombus;perimeter=rhombusPerimeter;whiteSpace=wrap;html=1;align=center;" parent="1" vertex="1">
          <mxGeometry x="-190" y="150" width="120" height="60" as="geometry" />
        </mxCell>
        <mxCell id="nUvGmeNd-1cFZqoozH3D-35" style="edgeStyle=orthogonalEdgeStyle;rounded=0;orthogonalLoop=1;jettySize=auto;html=1;exitX=0.5;exitY=1;exitDx=0;exitDy=0;entryX=0;entryY=0.5;entryDx=0;entryDy=0;endArrow=none;endFill=0;" parent="1" source="QJvTNlsDnHP9_tK7JuTX-30" target="nUvGmeNd-1cFZqoozH3D-34" edge="1">
          <mxGeometry relative="1" as="geometry">
            <Array as="points">
              <mxPoint x="205" y="330" />
            </Array>
          </mxGeometry>
        </mxCell>
        <mxCell id="QJvTNlsDnHP9_tK7JuTX-30" value="Member" style="shape=ext;margin=3;double=1;whiteSpace=wrap;html=1;align=center;" parent="1" vertex="1">
          <mxGeometry x="155" y="160" width="100" height="40" as="geometry" />
        </mxCell>
        <mxCell id="QJvTNlsDnHP9_tK7JuTX-34" value="" style="edgeStyle=elbowEdgeStyle;fontSize=12;html=1;endArrow=ERmandOne;endFill=0;rounded=0;entryX=1;entryY=0.5;entryDx=0;entryDy=0;exitX=0;exitY=0.5;exitDx=0;exitDy=0;" parent="1" source="QJvTNlsDnHP9_tK7JuTX-21" target="f8IEIEPdvuGG4pA07hkH-3" edge="1">
          <mxGeometry width="100" height="100" relative="1" as="geometry">
            <mxPoint x="-105" y="180" as="sourcePoint" />
            <mxPoint x="-235" y="180" as="targetPoint" />
            <Array as="points">
              <mxPoint x="-260" y="180" />
            </Array>
          </mxGeometry>
        </mxCell>
        <mxCell id="QJvTNlsDnHP9_tK7JuTX-42" value="" style="fontSize=12;html=1;endArrow=ERone;endFill=0;rounded=0;exitX=1;exitY=0.5;exitDx=0;exitDy=0;" parent="1" source="QJvTNlsDnHP9_tK7JuTX-21" target="QJvTNlsDnHP9_tK7JuTX-30" edge="1">
          <mxGeometry width="100" height="100" relative="1" as="geometry">
            <mxPoint x="-285" y="10" as="sourcePoint" />
            <mxPoint x="-55" y="460" as="targetPoint" />
          </mxGeometry>
        </mxCell>
        <mxCell id="QJvTNlsDnHP9_tK7JuTX-43" value="" style="fontSize=12;html=1;endArrow=ERone;endFill=0;rounded=0;exitX=1;exitY=0;exitDx=0;exitDy=0;edgeStyle=orthogonalEdgeStyle;entryX=0.5;entryY=1;entryDx=0;entryDy=0;" parent="1" source="QJvTNlsDnHP9_tK7JuTX-21" target="qzLRw00x2EBnMvrKDf3v-18" edge="1">
          <mxGeometry width="100" height="100" relative="1" as="geometry">
            <mxPoint x="-100" y="167.5" as="sourcePoint" />
            <mxPoint x="100" y="-267.5" as="targetPoint" />
            <Array as="points">
              <mxPoint x="-100" y="-68" />
              <mxPoint x="20" y="-68" />
            </Array>
          </mxGeometry>
        </mxCell>
        <mxCell id="f8IEIEPdvuGG4pA07hkH-3" value="Registered Users" style="rounded=0;whiteSpace=wrap;html=1;" parent="1" vertex="1">
          <mxGeometry x="-615" y="160" width="100" height="40" as="geometry" />
        </mxCell>
        <mxCell id="2XC-__sGIWEo_h4CQZG6-8" value="Profile Picture" style="ellipse;whiteSpace=wrap;html=1;align=center;" parent="1" vertex="1">
          <mxGeometry x="-725" y="210" width="100" height="40" as="geometry" />
        </mxCell>
        <mxCell id="qzLRw00x2EBnMvrKDf3v-8" style="edgeStyle=orthogonalEdgeStyle;rounded=0;orthogonalLoop=1;jettySize=auto;html=1;exitX=0;exitY=0.5;exitDx=0;exitDy=0;entryX=0.75;entryY=1;entryDx=0;entryDy=0;curved=1;endArrow=none;endFill=0;" parent="1" source="2XC-__sGIWEo_h4CQZG6-13" target="f8IEIEPdvuGG4pA07hkH-3" edge="1">
          <mxGeometry relative="1" as="geometry">
            <Array as="points">
              <mxPoint x="-560" y="280" />
              <mxPoint x="-560" y="200" />
            </Array>
          </mxGeometry>
        </mxCell>
        <mxCell id="2XC-__sGIWEo_h4CQZG6-13" value="email" style="ellipse;whiteSpace=wrap;html=1;align=center;" parent="1" vertex="1">
          <mxGeometry x="-505" y="260" width="100" height="40" as="geometry" />
        </mxCell>
        <mxCell id="2XC-__sGIWEo_h4CQZG6-19" value="firstName" style="ellipse;whiteSpace=wrap;html=1;align=center;" parent="1" vertex="1">
          <mxGeometry x="80" y="220" width="100" height="40" as="geometry" />
        </mxCell>
        <mxCell id="2XC-__sGIWEo_h4CQZG6-21" value="lastName" style="ellipse;whiteSpace=wrap;html=1;align=center;" parent="1" vertex="1">
          <mxGeometry x="80" y="270" width="100" height="40" as="geometry" />
        </mxCell>
        <mxCell id="2XC-__sGIWEo_h4CQZG6-23" value="lastLogin" style="ellipse;whiteSpace=wrap;html=1;align=center;" parent="1" vertex="1">
          <mxGeometry x="80" y="320" width="100" height="40" as="geometry" />
        </mxCell>
        <mxCell id="qzLRw00x2EBnMvrKDf3v-13" style="edgeStyle=orthogonalEdgeStyle;rounded=0;orthogonalLoop=1;jettySize=auto;html=1;entryX=1;entryY=0.5;entryDx=0;entryDy=0;endArrow=ERzeroToMany;endFill=0;" parent="1" source="2XC-__sGIWEo_h4CQZG6-35" target="qzLRw00x2EBnMvrKDf3v-17" edge="1">
          <mxGeometry relative="1" as="geometry">
            <mxPoint x="-310.0000000000002" y="-177.5" as="targetPoint" />
            <Array as="points">
              <mxPoint x="-210" y="-177" />
              <mxPoint x="-210" y="-177" />
            </Array>
          </mxGeometry>
        </mxCell>
        <mxCell id="qzLRw00x2EBnMvrKDf3v-14" style="edgeStyle=orthogonalEdgeStyle;rounded=0;orthogonalLoop=1;jettySize=auto;html=1;exitX=1;exitY=0.5;exitDx=0;exitDy=0;entryX=0;entryY=0.5;entryDx=0;entryDy=0;endArrow=ERzeroToMany;endFill=0;" parent="1" source="2XC-__sGIWEo_h4CQZG6-35" target="qzLRw00x2EBnMvrKDf3v-18" edge="1">
          <mxGeometry relative="1" as="geometry">
            <mxPoint x="50" y="-177.5" as="targetPoint" />
          </mxGeometry>
        </mxCell>
        <mxCell id="2XC-__sGIWEo_h4CQZG6-35" value="Permissions" style="shape=associativeEntity;whiteSpace=wrap;html=1;align=center;" parent="1" vertex="1">
          <mxGeometry x="-200" y="-207.5" width="140" height="60" as="geometry" />
        </mxCell>
        <mxCell id="2XC-__sGIWEo_h4CQZG6-39" value="" style="fontSize=12;html=1;endArrow=ERone;endFill=0;rounded=0;edgeStyle=orthogonalEdgeStyle;entryX=0.5;entryY=1;entryDx=0;entryDy=0;exitX=0;exitY=0;exitDx=0;exitDy=0;" parent="1" source="QJvTNlsDnHP9_tK7JuTX-21" target="qzLRw00x2EBnMvrKDf3v-17" edge="1">
          <mxGeometry width="100" height="100" relative="1" as="geometry">
            <mxPoint x="-160" y="167.5" as="sourcePoint" />
            <mxPoint x="-360" y="-267.5" as="targetPoint" />
            <Array as="points">
              <mxPoint x="-160" y="-68" />
              <mxPoint x="-280" y="-68" />
            </Array>
          </mxGeometry>
        </mxCell>
        <mxCell id="2XC-__sGIWEo_h4CQZG6-41" value="" style="edgeStyle=orthogonalEdgeStyle;fontSize=12;html=1;endArrow=ERzeroToMany;endFill=1;rounded=0;entryX=0.5;entryY=0;entryDx=0;entryDy=0;exitX=0.5;exitY=1;exitDx=0;exitDy=0;" parent="1" source="nUvGmeNd-1cFZqoozH3D-14" target="qzLRw00x2EBnMvrKDf3v-17" edge="1">
          <mxGeometry width="100" height="100" relative="1" as="geometry">
            <mxPoint x="-130" y="-328" as="sourcePoint" />
            <mxPoint x="-360" y="-307.5" as="targetPoint" />
            <Array as="points">
              <mxPoint x="-130" y="-298" />
              <mxPoint x="-280" y="-298" />
            </Array>
          </mxGeometry>
        </mxCell>
        <mxCell id="nUvGmeNd-1cFZqoozH3D-23" style="edgeStyle=orthogonalEdgeStyle;rounded=0;orthogonalLoop=1;jettySize=auto;html=1;entryX=0.5;entryY=0;entryDx=0;entryDy=0;startArrow=ERone;startFill=0;endArrow=none;endFill=0;exitX=0.25;exitY=1;exitDx=0;exitDy=0;" parent="1" source="2XC-__sGIWEo_h4CQZG6-46" target="nUvGmeNd-1cFZqoozH3D-21" edge="1">
          <mxGeometry relative="1" as="geometry">
            <Array as="points">
              <mxPoint x="545" y="-390" />
              <mxPoint x="458" y="-390" />
            </Array>
          </mxGeometry>
        </mxCell>
        <mxCell id="nUvGmeNd-1cFZqoozH3D-41" style="edgeStyle=orthogonalEdgeStyle;rounded=0;orthogonalLoop=1;jettySize=auto;html=1;exitX=0.5;exitY=1;exitDx=0;exitDy=0;endArrow=none;endFill=0;startArrow=ERzeroToMany;startFill=0;" parent="1" source="2XC-__sGIWEo_h4CQZG6-46" target="nUvGmeNd-1cFZqoozH3D-40" edge="1">
          <mxGeometry relative="1" as="geometry" />
        </mxCell>
        <mxCell id="2XC-__sGIWEo_h4CQZG6-46" value="Events" style="shape=ext;margin=3;double=1;whiteSpace=wrap;html=1;align=center;" parent="1" vertex="1">
          <mxGeometry x="520" y="-450" width="100" height="40" as="geometry" />
        </mxCell>
        <mxCell id="2XC-__sGIWEo_h4CQZG6-47" value="" style="edgeStyle=orthogonalEdgeStyle;fontSize=12;html=1;endArrow=ERzeroToMany;endFill=1;rounded=0;entryX=0;entryY=0.5;entryDx=0;entryDy=0;exitX=1;exitY=0.5;exitDx=0;exitDy=0;" parent="1" source="nUvGmeNd-1cFZqoozH3D-14" target="2XC-__sGIWEo_h4CQZG6-46" edge="1">
          <mxGeometry width="100" height="100" relative="1" as="geometry">
            <mxPoint x="-60" y="-380" as="sourcePoint" />
            <mxPoint x="240" y="-470" as="targetPoint" />
          </mxGeometry>
        </mxCell>
        <mxCell id="2XC-__sGIWEo_h4CQZG6-48" value="" style="fontSize=12;html=1;endArrow=ERzeroToMany;endFill=1;rounded=0;entryX=1;entryY=0.25;entryDx=0;entryDy=0;exitX=0.5;exitY=1;exitDx=0;exitDy=0;" parent="1" source="nUvGmeNd-1cFZqoozH3D-15" target="QJvTNlsDnHP9_tK7JuTX-30" edge="1">
          <mxGeometry width="100" height="100" relative="1" as="geometry">
            <mxPoint x="660" y="-190" as="sourcePoint" />
            <mxPoint x="190" y="-330" as="targetPoint" />
            <Array as="points">
              <mxPoint x="630" y="170" />
            </Array>
          </mxGeometry>
        </mxCell>
        <mxCell id="2XC-__sGIWEo_h4CQZG6-52" value="" style="fontSize=12;html=1;endArrow=ERzeroToMany;endFill=1;rounded=0;entryX=1;entryY=0.5;entryDx=0;entryDy=0;exitX=0.5;exitY=0;exitDx=0;exitDy=0;" parent="1" source="nUvGmeNd-1cFZqoozH3D-15" target="2XC-__sGIWEo_h4CQZG6-46" edge="1">
          <mxGeometry width="100" height="100" relative="1" as="geometry">
            <mxPoint x="660" y="-260" as="sourcePoint" />
            <mxPoint x="300" y="-120" as="targetPoint" />
            <Array as="points">
              <mxPoint x="660" y="-310" />
              <mxPoint x="660" y="-350" />
              <mxPoint x="660" y="-430" />
              <mxPoint x="630" y="-430" />
            </Array>
          </mxGeometry>
        </mxCell>
        <mxCell id="2XC-__sGIWEo_h4CQZG6-54" value="Award Instance" style="shape=ext;margin=3;double=1;whiteSpace=wrap;html=1;align=center;" parent="1" vertex="1">
          <mxGeometry x="70" y="-740" width="100" height="40" as="geometry" />
        </mxCell>
        <mxCell id="2XC-__sGIWEo_h4CQZG6-56" value="" style="edgeStyle=orthogonalEdgeStyle;fontSize=12;html=1;endArrow=ERzeroToMany;endFill=1;rounded=0;entryX=0;entryY=0.5;entryDx=0;entryDy=0;exitX=1;exitY=0;exitDx=0;exitDy=0;" parent="1" source="nUvGmeNd-1cFZqoozH3D-14" target="2XC-__sGIWEo_h4CQZG6-54" edge="1">
          <mxGeometry width="100" height="100" relative="1" as="geometry">
            <mxPoint x="-95" y="-400" as="sourcePoint" />
            <mxPoint x="250" y="-460" as="targetPoint" />
            <Array as="points">
              <mxPoint x="-100" y="-720" />
            </Array>
          </mxGeometry>
        </mxCell>
        <mxCell id="2XC-__sGIWEo_h4CQZG6-57" value="" style="fontSize=12;html=1;endArrow=ERzeroToMany;endFill=1;rounded=0;entryX=0.5;entryY=0;entryDx=0;entryDy=0;edgeStyle=orthogonalEdgeStyle;exitX=0.338;exitY=0.181;exitDx=0;exitDy=0;exitPerimeter=0;" parent="1" source="nUvGmeNd-1cFZqoozH3D-16" target="2XC-__sGIWEo_h4CQZG6-54" edge="1">
          <mxGeometry width="100" height="100" relative="1" as="geometry">
            <mxPoint x="690" y="-210" as="sourcePoint" />
            <mxPoint x="300" y="-440" as="targetPoint" />
            <Array as="points">
              <mxPoint x="691" y="-780" />
              <mxPoint x="120" y="-780" />
            </Array>
          </mxGeometry>
        </mxCell>
        <mxCell id="a81ULzeU6N-q9SvySfn3-40" style="edgeStyle=orthogonalEdgeStyle;rounded=0;orthogonalLoop=1;jettySize=auto;html=1;exitX=1;exitY=0.5;exitDx=0;exitDy=0;entryX=0.5;entryY=1;entryDx=0;entryDy=0;endArrow=none;endFill=0;" parent="1" source="2XC-__sGIWEo_h4CQZG6-61" target="2XC-__sGIWEo_h4CQZG6-54" edge="1">
          <mxGeometry relative="1" as="geometry" />
        </mxCell>
        <mxCell id="2XC-__sGIWEo_h4CQZG6-61" value="citation" style="ellipse;whiteSpace=wrap;html=1;align=center;" parent="1" vertex="1">
          <mxGeometry x="-10" y="-680" width="100" height="40" as="geometry" />
        </mxCell>
        <mxCell id="a81ULzeU6N-q9SvySfn3-42" style="edgeStyle=orthogonalEdgeStyle;rounded=0;orthogonalLoop=1;jettySize=auto;html=1;exitX=0;exitY=0.5;exitDx=0;exitDy=0;entryX=0.5;entryY=1;entryDx=0;entryDy=0;endArrow=none;endFill=0;" parent="1" source="2XC-__sGIWEo_h4CQZG6-62" target="2XC-__sGIWEo_h4CQZG6-54" edge="1">
          <mxGeometry relative="1" as="geometry" />
        </mxCell>
        <mxCell id="2XC-__sGIWEo_h4CQZG6-62" value="Date-Received" style="ellipse;whiteSpace=wrap;html=1;align=center;" parent="1" vertex="1">
          <mxGeometry x="140" y="-680" width="100" height="40" as="geometry" />
        </mxCell>
        <mxCell id="2XC-__sGIWEo_h4CQZG6-66" value="Award Image" style="ellipse;whiteSpace=wrap;html=1;align=center;" parent="1" vertex="1">
          <mxGeometry x="460" y="-650" width="100" height="40" as="geometry" />
        </mxCell>
        <mxCell id="2XC-__sGIWEo_h4CQZG6-69" value="Description" style="ellipse;whiteSpace=wrap;html=1;align=center;" parent="1" vertex="1">
          <mxGeometry x="460" y="-590" width="100" height="40" as="geometry" />
        </mxCell>
        <mxCell id="2XC-__sGIWEo_h4CQZG6-70" value="Title" style="ellipse;whiteSpace=wrap;html=1;align=center;" parent="1" vertex="1">
          <mxGeometry x="300" y="-590" width="100" height="40" as="geometry" />
        </mxCell>
        <mxCell id="2XC-__sGIWEo_h4CQZG6-78" value="Qualification Instance" style="shape=ext;margin=3;double=1;whiteSpace=wrap;html=1;align=center;" parent="1" vertex="1">
          <mxGeometry x="67.5" y="-1060" width="100" height="40" as="geometry" />
        </mxCell>
        <mxCell id="2XC-__sGIWEo_h4CQZG6-81" value="dateGiven" style="ellipse;whiteSpace=wrap;html=1;align=center;strokeColor=default;" parent="1" vertex="1">
          <mxGeometry x="157.5" y="-1000" width="100" height="40" as="geometry" />
        </mxCell>
        <mxCell id="2XC-__sGIWEo_h4CQZG6-82" value="citation" style="ellipse;whiteSpace=wrap;html=1;align=center;" parent="1" vertex="1">
          <mxGeometry x="-22.5" y="-1000" width="100" height="40" as="geometry" />
        </mxCell>
        <mxCell id="2XC-__sGIWEo_h4CQZG6-83" value="" style="edgeStyle=orthogonalEdgeStyle;fontSize=12;html=1;endArrow=none;endFill=0;rounded=0;entryX=0;entryY=0.5;entryDx=0;entryDy=0;" parent="1" source="2XC-__sGIWEo_h4CQZG6-78" target="2XC-__sGIWEo_h4CQZG6-81" edge="1">
          <mxGeometry width="100" height="100" relative="1" as="geometry">
            <mxPoint x="117.5" y="-1030" as="sourcePoint" />
            <mxPoint x="437.5" y="-920" as="targetPoint" />
            <Array as="points">
              <mxPoint x="117.5" y="-980" />
            </Array>
          </mxGeometry>
        </mxCell>
        <mxCell id="2XC-__sGIWEo_h4CQZG6-87" value="" style="edgeStyle=orthogonalEdgeStyle;fontSize=12;html=1;endArrow=none;endFill=0;rounded=0;entryX=1;entryY=0.5;entryDx=0;entryDy=0;startArrow=none;startFill=0;" parent="1" source="2XC-__sGIWEo_h4CQZG6-78" target="2XC-__sGIWEo_h4CQZG6-82" edge="1">
          <mxGeometry width="100" height="100" relative="1" as="geometry">
            <mxPoint x="127.5" y="-1020" as="sourcePoint" />
            <mxPoint x="167.5" y="-970" as="targetPoint" />
            <Array as="points">
              <mxPoint x="117.5" y="-980" />
            </Array>
          </mxGeometry>
        </mxCell>
        <mxCell id="2XC-__sGIWEo_h4CQZG6-88" value="" style="edgeStyle=orthogonalEdgeStyle;fontSize=12;html=1;endArrow=none;endFill=0;rounded=0;exitX=0.5;exitY=1;exitDx=0;exitDy=0;startArrow=none;startFill=0;" parent="1" source="2XC-__sGIWEo_h4CQZG6-78" target="a81ULzeU6N-q9SvySfn3-31" edge="1">
          <mxGeometry width="100" height="100" relative="1" as="geometry">
            <mxPoint x="127.5" y="-1030" as="sourcePoint" />
            <mxPoint x="155" y="-930" as="targetPoint" />
            <Array as="points">
              <mxPoint x="118" y="-930" />
            </Array>
          </mxGeometry>
        </mxCell>
        <mxCell id="2XC-__sGIWEo_h4CQZG6-90" value="" style="edgeStyle=orthogonalEdgeStyle;fontSize=12;html=1;endArrow=none;endFill=0;rounded=0;exitX=0.5;exitY=1;exitDx=0;exitDy=0;startArrow=none;startFill=0;" parent="1" source="2XC-__sGIWEo_h4CQZG6-78" target="a81ULzeU6N-q9SvySfn3-30" edge="1">
          <mxGeometry width="100" height="100" relative="1" as="geometry">
            <mxPoint x="127.5" y="-1030" as="sourcePoint" />
            <mxPoint x="77.5" y="-930" as="targetPoint" />
            <Array as="points">
              <mxPoint x="118" y="-930" />
            </Array>
          </mxGeometry>
        </mxCell>
        <mxCell id="2XC-__sGIWEo_h4CQZG6-91" value="" style="edgeStyle=orthogonalEdgeStyle;fontSize=12;html=1;endArrow=ERzeroToMany;endFill=1;rounded=0;entryX=0;entryY=0.5;entryDx=0;entryDy=0;exitX=0.5;exitY=0;exitDx=0;exitDy=0;" parent="1" source="nUvGmeNd-1cFZqoozH3D-14" target="2XC-__sGIWEo_h4CQZG6-78" edge="1">
          <mxGeometry width="100" height="100" relative="1" as="geometry">
            <mxPoint x="-130" y="-410" as="sourcePoint" />
            <mxPoint x="170" y="-740" as="targetPoint" />
          </mxGeometry>
        </mxCell>
        <mxCell id="2XC-__sGIWEo_h4CQZG6-92" value="" style="fontSize=12;html=1;endArrow=ERzeroToMany;endFill=1;rounded=0;entryX=0.5;entryY=0;entryDx=0;entryDy=0;edgeStyle=orthogonalEdgeStyle;exitX=1;exitY=0;exitDx=0;exitDy=0;" parent="1" source="nUvGmeNd-1cFZqoozH3D-16" target="2XC-__sGIWEo_h4CQZG6-78" edge="1">
          <mxGeometry width="100" height="100" relative="1" as="geometry">
            <mxPoint x="720" y="-210" as="sourcePoint" />
            <mxPoint x="280" y="-970" as="targetPoint" />
            <Array as="points">
              <mxPoint x="740" y="-1090" />
              <mxPoint x="118" y="-1090" />
            </Array>
          </mxGeometry>
        </mxCell>
        <mxCell id="qzLRw00x2EBnMvrKDf3v-10" style="edgeStyle=orthogonalEdgeStyle;rounded=0;orthogonalLoop=1;jettySize=auto;html=1;entryX=0.062;entryY=0.971;entryDx=0;entryDy=0;entryPerimeter=0;curved=1;exitX=1;exitY=0.5;exitDx=0;exitDy=0;endArrow=none;endFill=0;" parent="1" source="2XC-__sGIWEo_h4CQZG6-8" target="f8IEIEPdvuGG4pA07hkH-3" edge="1">
          <mxGeometry relative="1" as="geometry" />
        </mxCell>
        <mxCell id="53Fr9ARSWQHSsKV8VobN-8" style="edgeStyle=orthogonalEdgeStyle;rounded=0;orthogonalLoop=1;jettySize=auto;html=1;endArrow=none;endFill=0;" parent="1" source="qzLRw00x2EBnMvrKDf3v-15" target="53Fr9ARSWQHSsKV8VobN-5" edge="1">
          <mxGeometry relative="1" as="geometry" />
        </mxCell>
        <mxCell id="qzLRw00x2EBnMvrKDf3v-15" value="Award Type" style="whiteSpace=wrap;html=1;align=center;" parent="1" vertex="1">
          <mxGeometry x="380" y="-740" width="100" height="40" as="geometry" />
        </mxCell>
        <mxCell id="qzLRw00x2EBnMvrKDf3v-17" value="Leader" style="shape=ext;margin=3;double=1;whiteSpace=wrap;html=1;align=center;" parent="1" vertex="1">
          <mxGeometry x="-330" y="-197.5" width="100" height="40" as="geometry" />
        </mxCell>
        <mxCell id="a81ULzeU6N-q9SvySfn3-74" style="edgeStyle=orthogonalEdgeStyle;rounded=0;orthogonalLoop=1;jettySize=auto;html=1;exitX=0.5;exitY=0;exitDx=0;exitDy=0;entryX=0.5;entryY=1;entryDx=0;entryDy=0;endArrow=none;endFill=0;startArrow=ERzeroToMany;startFill=0;" parent="1" source="qzLRw00x2EBnMvrKDf3v-18" target="nUvGmeNd-1cFZqoozH3D-14" edge="1">
          <mxGeometry relative="1" as="geometry">
            <Array as="points">
              <mxPoint x="20" y="-300" />
              <mxPoint x="-130" y="-300" />
            </Array>
          </mxGeometry>
        </mxCell>
        <mxCell id="qzLRw00x2EBnMvrKDf3v-18" value="Admin" style="shape=ext;margin=3;double=1;whiteSpace=wrap;html=1;align=center;" parent="1" vertex="1">
          <mxGeometry x="-30" y="-197.5" width="100" height="40" as="geometry" />
        </mxCell>
        <mxCell id="nUvGmeNd-1cFZqoozH3D-42" style="edgeStyle=orthogonalEdgeStyle;rounded=0;orthogonalLoop=1;jettySize=auto;html=1;entryX=0;entryY=0.5;entryDx=0;entryDy=0;exitX=0.5;exitY=0;exitDx=0;exitDy=0;endArrow=none;endFill=0;startArrow=ERone;startFill=0;" parent="1" source="qzLRw00x2EBnMvrKDf3v-19" target="nUvGmeNd-1cFZqoozH3D-40" edge="1">
          <mxGeometry relative="1" as="geometry">
            <mxPoint x="382.5" y="-215" as="targetPoint" />
          </mxGeometry>
        </mxCell>
        <mxCell id="a81ULzeU6N-q9SvySfn3-78" style="edgeStyle=orthogonalEdgeStyle;rounded=0;orthogonalLoop=1;jettySize=auto;html=1;exitX=0.75;exitY=0;exitDx=0;exitDy=0;entryX=0;entryY=0.5;entryDx=0;entryDy=0;endArrow=none;endFill=0;" parent="1" source="qzLRw00x2EBnMvrKDf3v-19" target="a81ULzeU6N-q9SvySfn3-6" edge="1">
          <mxGeometry relative="1" as="geometry" />
        </mxCell>
        <mxCell id="a81ULzeU6N-q9SvySfn3-80" style="edgeStyle=orthogonalEdgeStyle;rounded=0;orthogonalLoop=1;jettySize=auto;html=1;exitX=1;exitY=0.25;exitDx=0;exitDy=0;entryX=0;entryY=0.5;entryDx=0;entryDy=0;endArrow=none;endFill=0;" parent="1" source="qzLRw00x2EBnMvrKDf3v-19" target="2u9VCRAF1mAu7VQFAGcg-46" edge="1">
          <mxGeometry relative="1" as="geometry" />
        </mxCell>
        <mxCell id="a81ULzeU6N-q9SvySfn3-84" style="edgeStyle=orthogonalEdgeStyle;rounded=0;orthogonalLoop=1;jettySize=auto;html=1;exitX=0.25;exitY=1;exitDx=0;exitDy=0;entryX=0.5;entryY=0;entryDx=0;entryDy=0;endArrow=none;endFill=0;startArrow=ERone;startFill=0;" parent="1" source="qzLRw00x2EBnMvrKDf3v-19" target="nUvGmeNd-1cFZqoozH3D-44" edge="1">
          <mxGeometry relative="1" as="geometry" />
        </mxCell>
        <mxCell id="qzLRw00x2EBnMvrKDf3v-19" value="Organization" style="whiteSpace=wrap;html=1;align=center;" parent="1" vertex="1">
          <mxGeometry x="217.5" y="-155" width="100" height="40" as="geometry" />
        </mxCell>
        <mxCell id="qzLRw00x2EBnMvrKDf3v-24" style="edgeStyle=orthogonalEdgeStyle;rounded=0;orthogonalLoop=1;jettySize=auto;html=1;entryX=0;entryY=0.5;entryDx=0;entryDy=0;startArrow=ERone;startFill=0;endArrow=none;endFill=0;" parent="1" source="qzLRw00x2EBnMvrKDf3v-20" target="nUvGmeNd-1cFZqoozH3D-14" edge="1">
          <mxGeometry relative="1" as="geometry">
            <mxPoint x="-200" y="-380" as="targetPoint" />
          </mxGeometry>
        </mxCell>
        <mxCell id="qzLRw00x2EBnMvrKDf3v-20" value="Custom section" style="whiteSpace=wrap;html=1;align=center;" parent="1" vertex="1">
          <mxGeometry x="-510" y="-360" width="100" height="40" as="geometry" />
        </mxCell>
        <mxCell id="nUvGmeNd-1cFZqoozH3D-3" style="edgeStyle=orthogonalEdgeStyle;rounded=0;orthogonalLoop=1;jettySize=auto;html=1;exitX=0;exitY=0.5;exitDx=0;exitDy=0;entryX=0.25;entryY=0;entryDx=0;entryDy=0;startArrow=ERone;startFill=0;endArrow=ERone;endFill=0;" parent="1" source="qzLRw00x2EBnMvrKDf3v-21" target="QJvTNlsDnHP9_tK7JuTX-30" edge="1">
          <mxGeometry relative="1" as="geometry">
            <Array as="points">
              <mxPoint x="90" y="-270" />
              <mxPoint x="90" y="150" />
              <mxPoint x="180" y="150" />
            </Array>
          </mxGeometry>
        </mxCell>
        <mxCell id="qzLRw00x2EBnMvrKDf3v-21" value="Event reminder" style="shape=ext;margin=3;double=1;whiteSpace=wrap;html=1;align=center;" parent="1" vertex="1">
          <mxGeometry x="335" y="-290" width="100" height="40" as="geometry" />
        </mxCell>
        <mxCell id="qzLRw00x2EBnMvrKDf3v-25" style="edgeStyle=orthogonalEdgeStyle;rounded=0;orthogonalLoop=1;jettySize=auto;html=1;endArrow=ERone;endFill=0;startArrow=none;startFill=0;exitX=0.5;exitY=1;exitDx=0;exitDy=0;" parent="1" source="nUvGmeNd-1cFZqoozH3D-19" target="f8IEIEPdvuGG4pA07hkH-3" edge="1">
          <mxGeometry relative="1" as="geometry" />
        </mxCell>
        <mxCell id="a81ULzeU6N-q9SvySfn3-58" style="edgeStyle=orthogonalEdgeStyle;rounded=0;orthogonalLoop=1;jettySize=auto;html=1;exitX=1;exitY=0.75;exitDx=0;exitDy=0;entryX=0;entryY=0.5;entryDx=0;entryDy=0;endArrow=none;endFill=0;" parent="1" source="qzLRw00x2EBnMvrKDf3v-22" target="a81ULzeU6N-q9SvySfn3-57" edge="1">
          <mxGeometry relative="1" as="geometry" />
        </mxCell>
        <mxCell id="qzLRw00x2EBnMvrKDf3v-22" value="Comments" style="shape=ext;margin=3;double=1;whiteSpace=wrap;html=1;align=center;" parent="1" vertex="1">
          <mxGeometry x="-615" y="-100" width="100" height="40" as="geometry" />
        </mxCell>
        <mxCell id="qzLRw00x2EBnMvrKDf3v-27" value="comment" style="ellipse;whiteSpace=wrap;html=1;align=center;" parent="1" vertex="1">
          <mxGeometry x="-745" y="-210" width="100" height="40" as="geometry" />
        </mxCell>
        <mxCell id="qzLRw00x2EBnMvrKDf3v-28" value="commentDate" style="ellipse;whiteSpace=wrap;html=1;align=center;" parent="1" vertex="1">
          <mxGeometry x="-645" y="-210" width="100" height="40" as="geometry" />
        </mxCell>
        <mxCell id="qzLRw00x2EBnMvrKDf3v-29" value="pageKey" style="ellipse;whiteSpace=wrap;html=1;align=center;" parent="1" vertex="1">
          <mxGeometry x="-560" y="-180" width="100" height="40" as="geometry" />
        </mxCell>
        <mxCell id="qzLRw00x2EBnMvrKDf3v-30" value="pageType" style="ellipse;whiteSpace=wrap;html=1;align=center;" parent="1" vertex="1">
          <mxGeometry x="-780" y="-110" width="100" height="40" as="geometry" />
        </mxCell>
        <mxCell id="qzLRw00x2EBnMvrKDf3v-36" value="plainText" style="ellipse;whiteSpace=wrap;html=1;align=center;" parent="1" vertex="1">
          <mxGeometry x="-515" y="-480" width="100" height="40" as="geometry" />
        </mxCell>
        <mxCell id="qzLRw00x2EBnMvrKDf3v-37" value="Title" style="ellipse;whiteSpace=wrap;html=1;align=center;" parent="1" vertex="1">
          <mxGeometry x="-710" y="-330" width="100" height="40" as="geometry" />
        </mxCell>
        <mxCell id="qzLRw00x2EBnMvrKDf3v-38" value="thirdParty" style="ellipse;whiteSpace=wrap;html=1;align=center;" parent="1" vertex="1">
          <mxGeometry x="-410" y="-470" width="100" height="40" as="geometry" />
        </mxCell>
        <mxCell id="qzLRw00x2EBnMvrKDf3v-39" value="accessLevel" style="ellipse;whiteSpace=wrap;html=1;align=center;" parent="1" vertex="1">
          <mxGeometry x="-650" y="-460" width="100" height="40" as="geometry" />
        </mxCell>
        <mxCell id="2u9VCRAF1mAu7VQFAGcg-4" value="" style="fontSize=12;html=1;endArrow=none;rounded=0;entryX=1;entryY=0.5;entryDx=0;entryDy=0;exitX=0;exitY=0.75;exitDx=0;exitDy=0;startArrow=none;startFill=0;edgeStyle=orthogonalEdgeStyle;endFill=0;" parent="1" source="qzLRw00x2EBnMvrKDf3v-20" target="qzLRw00x2EBnMvrKDf3v-37" edge="1">
          <mxGeometry width="100" height="100" relative="1" as="geometry">
            <mxPoint x="-600" y="-320" as="sourcePoint" />
            <mxPoint x="-545" y="-310" as="targetPoint" />
          </mxGeometry>
        </mxCell>
        <mxCell id="2u9VCRAF1mAu7VQFAGcg-6" value="" style="fontSize=12;html=1;endArrow=none;rounded=0;entryX=1;entryY=0.5;entryDx=0;entryDy=0;exitX=0.25;exitY=0;exitDx=0;exitDy=0;startArrow=none;startFill=0;edgeStyle=orthogonalEdgeStyle;endFill=0;" parent="1" source="qzLRw00x2EBnMvrKDf3v-20" target="qzLRw00x2EBnMvrKDf3v-39" edge="1">
          <mxGeometry width="100" height="100" relative="1" as="geometry">
            <mxPoint x="-550" y="-340" as="sourcePoint" />
            <mxPoint x="-590" y="-320" as="targetPoint" />
          </mxGeometry>
        </mxCell>
        <mxCell id="2u9VCRAF1mAu7VQFAGcg-7" value="" style="fontSize=12;html=1;endArrow=none;rounded=0;entryX=0.5;entryY=1;entryDx=0;entryDy=0;exitX=0.75;exitY=0;exitDx=0;exitDy=0;startArrow=none;startFill=0;edgeStyle=orthogonalEdgeStyle;endFill=0;" parent="1" source="qzLRw00x2EBnMvrKDf3v-20" target="qzLRw00x2EBnMvrKDf3v-36" edge="1">
          <mxGeometry width="100" height="100" relative="1" as="geometry">
            <mxPoint x="-550" y="-360" as="sourcePoint" />
            <mxPoint x="-590" y="-390" as="targetPoint" />
          </mxGeometry>
        </mxCell>
        <mxCell id="2u9VCRAF1mAu7VQFAGcg-8" value="" style="fontSize=12;html=1;endArrow=none;rounded=0;entryX=0.5;entryY=1;entryDx=0;entryDy=0;exitX=1;exitY=0.25;exitDx=0;exitDy=0;startArrow=none;startFill=0;edgeStyle=orthogonalEdgeStyle;endFill=0;" parent="1" source="qzLRw00x2EBnMvrKDf3v-20" target="qzLRw00x2EBnMvrKDf3v-38" edge="1">
          <mxGeometry width="100" height="100" relative="1" as="geometry">
            <mxPoint x="-540" y="-350" as="sourcePoint" />
            <mxPoint x="-580" y="-380" as="targetPoint" />
          </mxGeometry>
        </mxCell>
        <mxCell id="2u9VCRAF1mAu7VQFAGcg-9" value="" style="fontSize=12;html=1;endArrow=none;rounded=0;entryX=0.5;entryY=1;entryDx=0;entryDy=0;exitX=0.75;exitY=0;exitDx=0;exitDy=0;startArrow=none;startFill=0;edgeStyle=orthogonalEdgeStyle;endFill=0;" parent="1" source="qzLRw00x2EBnMvrKDf3v-22" target="qzLRw00x2EBnMvrKDf3v-29" edge="1">
          <mxGeometry width="100" height="100" relative="1" as="geometry">
            <mxPoint x="-410" y="-280" as="sourcePoint" />
            <mxPoint x="-450" y="-260" as="targetPoint" />
          </mxGeometry>
        </mxCell>
        <mxCell id="2u9VCRAF1mAu7VQFAGcg-10" value="" style="fontSize=12;html=1;endArrow=none;rounded=0;entryX=0.56;entryY=1.094;entryDx=0;entryDy=0;exitX=0.5;exitY=0;exitDx=0;exitDy=0;startArrow=none;startFill=0;edgeStyle=orthogonalEdgeStyle;endFill=0;entryPerimeter=0;" parent="1" source="qzLRw00x2EBnMvrKDf3v-22" target="qzLRw00x2EBnMvrKDf3v-28" edge="1">
          <mxGeometry width="100" height="100" relative="1" as="geometry">
            <mxPoint x="-530" y="-100" as="sourcePoint" />
            <mxPoint x="-500" y="-130" as="targetPoint" />
          </mxGeometry>
        </mxCell>
        <mxCell id="2u9VCRAF1mAu7VQFAGcg-11" value="" style="fontSize=12;html=1;endArrow=none;rounded=0;entryX=1;entryY=1;entryDx=0;entryDy=0;exitX=0;exitY=0;exitDx=0;exitDy=0;startArrow=none;startFill=0;edgeStyle=orthogonalEdgeStyle;endFill=0;" parent="1" source="qzLRw00x2EBnMvrKDf3v-22" target="qzLRw00x2EBnMvrKDf3v-27" edge="1">
          <mxGeometry width="100" height="100" relative="1" as="geometry">
            <mxPoint x="-520" y="-90" as="sourcePoint" />
            <mxPoint x="-490" y="-120" as="targetPoint" />
          </mxGeometry>
        </mxCell>
        <mxCell id="2u9VCRAF1mAu7VQFAGcg-12" value="" style="fontSize=12;html=1;endArrow=none;rounded=0;exitX=1;exitY=0.5;exitDx=0;exitDy=0;startArrow=none;startFill=0;edgeStyle=orthogonalEdgeStyle;endFill=0;" parent="1" source="qzLRw00x2EBnMvrKDf3v-30" target="qzLRw00x2EBnMvrKDf3v-22" edge="1">
          <mxGeometry width="100" height="100" relative="1" as="geometry">
            <mxPoint x="-510" y="-80" as="sourcePoint" />
            <mxPoint x="-630" y="-70" as="targetPoint" />
          </mxGeometry>
        </mxCell>
        <mxCell id="2u9VCRAF1mAu7VQFAGcg-21" value="" style="endArrow=none;html=1;rounded=0;entryX=0.5;entryY=1;entryDx=0;entryDy=0;exitX=1;exitY=0.5;exitDx=0;exitDy=0;endFill=0;" parent="1" source="2XC-__sGIWEo_h4CQZG6-19" target="QJvTNlsDnHP9_tK7JuTX-30" edge="1">
          <mxGeometry relative="1" as="geometry">
            <mxPoint x="-5" y="300" as="sourcePoint" />
            <mxPoint x="155" y="300" as="targetPoint" />
            <Array as="points">
              <mxPoint x="205" y="240" />
            </Array>
          </mxGeometry>
        </mxCell>
        <mxCell id="2u9VCRAF1mAu7VQFAGcg-22" value="" style="endArrow=none;html=1;rounded=0;exitX=1;exitY=0.5;exitDx=0;exitDy=0;endFill=0;" parent="1" source="2XC-__sGIWEo_h4CQZG6-21" edge="1">
          <mxGeometry relative="1" as="geometry">
            <mxPoint x="190" y="250" as="sourcePoint" />
            <mxPoint x="205" y="200" as="targetPoint" />
            <Array as="points">
              <mxPoint x="205" y="290" />
            </Array>
          </mxGeometry>
        </mxCell>
        <mxCell id="2u9VCRAF1mAu7VQFAGcg-23" value="" style="endArrow=none;html=1;rounded=0;entryX=0.5;entryY=1;entryDx=0;entryDy=0;exitX=1;exitY=0.5;exitDx=0;exitDy=0;endFill=0;" parent="1" target="QJvTNlsDnHP9_tK7JuTX-30" edge="1">
          <mxGeometry relative="1" as="geometry">
            <mxPoint x="180" y="340" as="sourcePoint" />
            <mxPoint x="205" y="300" as="targetPoint" />
            <Array as="points">
              <mxPoint x="205" y="340" />
            </Array>
          </mxGeometry>
        </mxCell>
        <mxCell id="2u9VCRAF1mAu7VQFAGcg-24" value="" style="endArrow=none;html=1;rounded=0;entryX=0.5;entryY=1;entryDx=0;entryDy=0;exitX=0;exitY=0.5;exitDx=0;exitDy=0;endFill=0;" parent="1" source="a81ULzeU6N-q9SvySfn3-59" target="QJvTNlsDnHP9_tK7JuTX-30" edge="1">
          <mxGeometry relative="1" as="geometry">
            <mxPoint x="235" y="230" as="sourcePoint" />
            <mxPoint x="235" y="230" as="targetPoint" />
            <Array as="points">
              <mxPoint x="205" y="230" />
            </Array>
          </mxGeometry>
        </mxCell>
        <mxCell id="2u9VCRAF1mAu7VQFAGcg-25" value="" style="endArrow=none;html=1;rounded=0;entryX=0.5;entryY=1;entryDx=0;entryDy=0;exitX=0;exitY=0.5;exitDx=0;exitDy=0;endFill=0;" parent="1" source="nUvGmeNd-1cFZqoozH3D-18" target="QJvTNlsDnHP9_tK7JuTX-30" edge="1">
          <mxGeometry relative="1" as="geometry">
            <mxPoint x="235" y="280" as="sourcePoint" />
            <mxPoint x="195" y="250" as="targetPoint" />
            <Array as="points">
              <mxPoint x="205" y="280" />
            </Array>
          </mxGeometry>
        </mxCell>
        <mxCell id="2u9VCRAF1mAu7VQFAGcg-28" value="" style="endArrow=none;html=1;rounded=0;entryX=0.5;entryY=1;entryDx=0;entryDy=0;" parent="1" source="a81ULzeU6N-q9SvySfn3-28" target="qzLRw00x2EBnMvrKDf3v-15" edge="1">
          <mxGeometry relative="1" as="geometry">
            <mxPoint x="400" y="-630" as="sourcePoint" />
            <mxPoint x="330" y="-640" as="targetPoint" />
            <Array as="points">
              <mxPoint x="430" y="-630" />
            </Array>
          </mxGeometry>
        </mxCell>
        <mxCell id="2u9VCRAF1mAu7VQFAGcg-29" value="" style="endArrow=none;html=1;rounded=0;entryX=0.5;entryY=1;entryDx=0;entryDy=0;exitX=1;exitY=0.5;exitDx=0;exitDy=0;" parent="1" source="2XC-__sGIWEo_h4CQZG6-70" target="qzLRw00x2EBnMvrKDf3v-15" edge="1">
          <mxGeometry relative="1" as="geometry">
            <mxPoint x="415" y="-590" as="sourcePoint" />
            <mxPoint x="445" y="-660" as="targetPoint" />
            <Array as="points">
              <mxPoint x="430" y="-570" />
            </Array>
          </mxGeometry>
        </mxCell>
        <mxCell id="2u9VCRAF1mAu7VQFAGcg-30" value="" style="endArrow=none;html=1;rounded=0;entryX=0.5;entryY=1;entryDx=0;entryDy=0;exitX=0.001;exitY=0.411;exitDx=0;exitDy=0;exitPerimeter=0;" parent="1" source="2XC-__sGIWEo_h4CQZG6-66" target="qzLRw00x2EBnMvrKDf3v-15" edge="1">
          <mxGeometry relative="1" as="geometry">
            <mxPoint x="420" y="-610" as="sourcePoint" />
            <mxPoint x="450" y="-680" as="targetPoint" />
            <Array as="points">
              <mxPoint x="430" y="-634" />
            </Array>
          </mxGeometry>
        </mxCell>
        <mxCell id="2u9VCRAF1mAu7VQFAGcg-31" value="" style="endArrow=none;html=1;rounded=0;entryX=0.5;entryY=1;entryDx=0;entryDy=0;exitX=0;exitY=0.5;exitDx=0;exitDy=0;" parent="1" source="2XC-__sGIWEo_h4CQZG6-69" target="qzLRw00x2EBnMvrKDf3v-15" edge="1">
          <mxGeometry relative="1" as="geometry">
            <mxPoint x="430" y="-600" as="sourcePoint" />
            <mxPoint x="460" y="-670" as="targetPoint" />
            <Array as="points">
              <mxPoint x="430" y="-570" />
            </Array>
          </mxGeometry>
        </mxCell>
        <mxCell id="a81ULzeU6N-q9SvySfn3-79" style="edgeStyle=orthogonalEdgeStyle;rounded=0;orthogonalLoop=1;jettySize=auto;html=1;exitX=0;exitY=0.5;exitDx=0;exitDy=0;entryX=0.75;entryY=1;entryDx=0;entryDy=0;endArrow=none;endFill=0;" parent="1" source="2u9VCRAF1mAu7VQFAGcg-44" target="qzLRw00x2EBnMvrKDf3v-19" edge="1">
          <mxGeometry relative="1" as="geometry" />
        </mxCell>
        <mxCell id="2u9VCRAF1mAu7VQFAGcg-44" value="orgName" style="ellipse;whiteSpace=wrap;html=1;align=center;" parent="1" vertex="1">
          <mxGeometry x="460" y="-80" width="100" height="40" as="geometry" />
        </mxCell>
        <mxCell id="2u9VCRAF1mAu7VQFAGcg-46" value="orgDescription" style="ellipse;whiteSpace=wrap;html=1;align=center;" parent="1" vertex="1">
          <mxGeometry x="495" y="-170" width="100" height="40" as="geometry" />
        </mxCell>
        <mxCell id="nUvGmeNd-1cFZqoozH3D-38" style="edgeStyle=orthogonalEdgeStyle;rounded=0;orthogonalLoop=1;jettySize=auto;html=1;exitX=0.5;exitY=1;exitDx=0;exitDy=0;entryX=0.25;entryY=0;entryDx=0;entryDy=0;endArrow=none;endFill=0;" parent="1" source="nUvGmeNd-1cFZqoozH3D-1" target="qzLRw00x2EBnMvrKDf3v-21" edge="1">
          <mxGeometry relative="1" as="geometry" />
        </mxCell>
        <mxCell id="nUvGmeNd-1cFZqoozH3D-1" value="Attendance" style="ellipse;whiteSpace=wrap;html=1;align=center;" parent="1" vertex="1">
          <mxGeometry x="320" y="-360" width="100" height="40" as="geometry" />
        </mxCell>
        <mxCell id="nUvGmeNd-1cFZqoozH3D-7" style="edgeStyle=orthogonalEdgeStyle;rounded=0;orthogonalLoop=1;jettySize=auto;html=1;endArrow=ERmany;endFill=0;entryX=0.397;entryY=-0.001;entryDx=0;entryDy=0;entryPerimeter=0;exitX=0;exitY=0.5;exitDx=0;exitDy=0;" parent="1" source="nUvGmeNd-1cFZqoozH3D-5" target="QJvTNlsDnHP9_tK7JuTX-30" edge="1">
          <mxGeometry relative="1" as="geometry">
            <mxPoint x="240" y="-90" as="sourcePoint" />
            <mxPoint x="310" y="-122.5" as="targetPoint" />
            <Array as="points">
              <mxPoint x="130" y="-110" />
              <mxPoint x="130" y="130" />
              <mxPoint x="195" y="130" />
            </Array>
          </mxGeometry>
        </mxCell>
        <mxCell id="nUvGmeNd-1cFZqoozH3D-5" value="has" style="shape=rhombus;perimeter=rhombusPerimeter;whiteSpace=wrap;html=1;align=center;" parent="1" vertex="1">
          <mxGeometry x="137.5" y="-150" width="40" height="30" as="geometry" />
        </mxCell>
        <mxCell id="nUvGmeNd-1cFZqoozH3D-9" style="edgeStyle=orthogonalEdgeStyle;rounded=0;orthogonalLoop=1;jettySize=auto;html=1;exitX=1;exitY=0.5;exitDx=0;exitDy=0;entryX=0;entryY=0.5;entryDx=0;entryDy=0;endArrow=ERoneToMany;endFill=0;" parent="1" source="nUvGmeNd-1cFZqoozH3D-5" target="qzLRw00x2EBnMvrKDf3v-19" edge="1">
          <mxGeometry relative="1" as="geometry" />
        </mxCell>
        <mxCell id="a81ULzeU6N-q9SvySfn3-88" style="edgeStyle=orthogonalEdgeStyle;rounded=0;orthogonalLoop=1;jettySize=auto;html=1;exitX=0;exitY=0.5;exitDx=0;exitDy=0;entryX=0.5;entryY=0;entryDx=0;entryDy=0;endArrow=none;endFill=0;startArrow=ERzeroToOne;startFill=0;" parent="1" source="nUvGmeNd-1cFZqoozH3D-10" target="a81ULzeU6N-q9SvySfn3-86" edge="1">
          <mxGeometry relative="1" as="geometry" />
        </mxCell>
        <mxCell id="nUvGmeNd-1cFZqoozH3D-10" value="Groups" style="shape=ext;margin=3;double=1;whiteSpace=wrap;html=1;align=center;" parent="1" vertex="1">
          <mxGeometry x="200" y="20" width="100" height="40" as="geometry" />
        </mxCell>
        <mxCell id="nUvGmeNd-1cFZqoozH3D-47" style="edgeStyle=orthogonalEdgeStyle;rounded=0;orthogonalLoop=1;jettySize=auto;html=1;entryX=0.75;entryY=0;entryDx=0;entryDy=0;endArrow=none;endFill=0;" parent="1" source="nUvGmeNd-1cFZqoozH3D-11" target="nUvGmeNd-1cFZqoozH3D-10" edge="1">
          <mxGeometry relative="1" as="geometry" />
        </mxCell>
        <mxCell id="nUvGmeNd-1cFZqoozH3D-11" value="groupName" style="ellipse;whiteSpace=wrap;html=1;align=center;" parent="1" vertex="1">
          <mxGeometry x="280" y="-50" width="100" height="40" as="geometry" />
        </mxCell>
        <mxCell id="nUvGmeNd-1cFZqoozH3D-48" style="edgeStyle=orthogonalEdgeStyle;rounded=0;orthogonalLoop=1;jettySize=auto;html=1;entryX=1;entryY=0.25;entryDx=0;entryDy=0;endArrow=none;endFill=0;" parent="1" source="nUvGmeNd-1cFZqoozH3D-12" target="nUvGmeNd-1cFZqoozH3D-10" edge="1">
          <mxGeometry relative="1" as="geometry" />
        </mxCell>
        <mxCell id="nUvGmeNd-1cFZqoozH3D-12" value="sortOrder" style="ellipse;whiteSpace=wrap;html=1;align=center;" parent="1" vertex="1">
          <mxGeometry x="420" y="-20" width="100" height="40" as="geometry" />
        </mxCell>
        <mxCell id="nUvGmeNd-1cFZqoozH3D-14" value="Creates" style="shape=rhombus;perimeter=rhombusPerimeter;whiteSpace=wrap;html=1;align=center;" parent="1" vertex="1">
          <mxGeometry x="-190" y="-390" width="120" height="60" as="geometry" />
        </mxCell>
        <mxCell id="nUvGmeNd-1cFZqoozH3D-15" value="can join" style="shape=rhombus;perimeter=rhombusPerimeter;whiteSpace=wrap;html=1;align=center;" parent="1" vertex="1">
          <mxGeometry x="560" y="-310" width="120" height="60" as="geometry" />
        </mxCell>
        <mxCell id="nUvGmeNd-1cFZqoozH3D-17" style="edgeStyle=orthogonalEdgeStyle;rounded=0;orthogonalLoop=1;jettySize=auto;html=1;entryX=1;entryY=0.75;entryDx=0;entryDy=0;endArrow=ERzeroToMany;endFill=0;" parent="1" source="nUvGmeNd-1cFZqoozH3D-16" target="QJvTNlsDnHP9_tK7JuTX-30" edge="1">
          <mxGeometry relative="1" as="geometry">
            <Array as="points">
              <mxPoint x="710" y="190" />
            </Array>
          </mxGeometry>
        </mxCell>
        <mxCell id="nUvGmeNd-1cFZqoozH3D-16" value="can recieve" style="shape=rhombus;perimeter=rhombusPerimeter;whiteSpace=wrap;html=1;align=center;" parent="1" vertex="1">
          <mxGeometry x="650" y="-220" width="120" height="60" as="geometry" />
        </mxCell>
        <mxCell id="nUvGmeNd-1cFZqoozH3D-18" value="orgPerms" style="ellipse;whiteSpace=wrap;html=1;align=center;" parent="1" vertex="1">
          <mxGeometry x="235" y="260" width="100" height="40" as="geometry" />
        </mxCell>
        <mxCell id="nUvGmeNd-1cFZqoozH3D-20" style="edgeStyle=orthogonalEdgeStyle;rounded=0;orthogonalLoop=1;jettySize=auto;html=1;exitX=0.5;exitY=0;exitDx=0;exitDy=0;entryX=0.5;entryY=1;entryDx=0;entryDy=0;endArrow=ERzeroToMany;endFill=0;" parent="1" source="nUvGmeNd-1cFZqoozH3D-19" target="qzLRw00x2EBnMvrKDf3v-22" edge="1">
          <mxGeometry relative="1" as="geometry" />
        </mxCell>
        <mxCell id="nUvGmeNd-1cFZqoozH3D-19" value="can make" style="shape=rhombus;perimeter=rhombusPerimeter;whiteSpace=wrap;html=1;align=center;" parent="1" vertex="1">
          <mxGeometry x="-625" y="30" width="120" height="60" as="geometry" />
        </mxCell>
        <mxCell id="nUvGmeNd-1cFZqoozH3D-24" style="edgeStyle=orthogonalEdgeStyle;rounded=0;orthogonalLoop=1;jettySize=auto;html=1;entryX=1;entryY=0.5;entryDx=0;entryDy=0;endArrow=ERoneToMany;endFill=0;" parent="1" source="nUvGmeNd-1cFZqoozH3D-21" target="qzLRw00x2EBnMvrKDf3v-21" edge="1">
          <mxGeometry relative="1" as="geometry" />
        </mxCell>
        <mxCell id="nUvGmeNd-1cFZqoozH3D-21" value="shall have" style="shape=rhombus;perimeter=rhombusPerimeter;whiteSpace=wrap;html=1;align=center;" parent="1" vertex="1">
          <mxGeometry x="420" y="-380" width="75" height="60" as="geometry" />
        </mxCell>
        <mxCell id="nUvGmeNd-1cFZqoozH3D-25" value="qualification Image" style="ellipse;whiteSpace=wrap;html=1;align=center;" parent="1" vertex="1">
          <mxGeometry x="524.75" y="-980" width="100" height="40" as="geometry" />
        </mxCell>
        <mxCell id="nUvGmeNd-1cFZqoozH3D-26" value="Description" style="ellipse;whiteSpace=wrap;html=1;align=center;" parent="1" vertex="1">
          <mxGeometry x="525.25" y="-920" width="100" height="40" as="geometry" />
        </mxCell>
        <mxCell id="nUvGmeNd-1cFZqoozH3D-27" value="Title" style="ellipse;whiteSpace=wrap;html=1;align=center;" parent="1" vertex="1">
          <mxGeometry x="365.25" y="-920" width="100" height="40" as="geometry" />
        </mxCell>
        <mxCell id="53Fr9ARSWQHSsKV8VobN-1" style="edgeStyle=orthogonalEdgeStyle;rounded=0;orthogonalLoop=1;jettySize=auto;html=1;exitX=0.5;exitY=1;exitDx=0;exitDy=0;entryX=1;entryY=0.5;entryDx=0;entryDy=0;endArrow=none;endFill=0;" parent="1" source="nUvGmeNd-1cFZqoozH3D-28" target="a81ULzeU6N-q9SvySfn3-27" edge="1">
          <mxGeometry relative="1" as="geometry" />
        </mxCell>
        <mxCell id="53Fr9ARSWQHSsKV8VobN-2" style="edgeStyle=orthogonalEdgeStyle;rounded=0;orthogonalLoop=1;jettySize=auto;html=1;entryX=0;entryY=0.5;entryDx=0;entryDy=0;endArrow=none;endFill=0;" parent="1" source="nUvGmeNd-1cFZqoozH3D-28" target="nUvGmeNd-1cFZqoozH3D-25" edge="1">
          <mxGeometry relative="1" as="geometry" />
        </mxCell>
        <mxCell id="53Fr9ARSWQHSsKV8VobN-3" style="edgeStyle=orthogonalEdgeStyle;rounded=0;orthogonalLoop=1;jettySize=auto;html=1;entryX=1;entryY=0.5;entryDx=0;entryDy=0;endArrow=none;endFill=0;" parent="1" source="nUvGmeNd-1cFZqoozH3D-28" target="nUvGmeNd-1cFZqoozH3D-27" edge="1">
          <mxGeometry relative="1" as="geometry" />
        </mxCell>
        <mxCell id="53Fr9ARSWQHSsKV8VobN-4" style="edgeStyle=orthogonalEdgeStyle;rounded=0;orthogonalLoop=1;jettySize=auto;html=1;entryX=0;entryY=0.5;entryDx=0;entryDy=0;endArrow=none;endFill=0;" parent="1" source="nUvGmeNd-1cFZqoozH3D-28" target="nUvGmeNd-1cFZqoozH3D-26" edge="1">
          <mxGeometry relative="1" as="geometry" />
        </mxCell>
        <mxCell id="53Fr9ARSWQHSsKV8VobN-7" style="edgeStyle=orthogonalEdgeStyle;rounded=0;orthogonalLoop=1;jettySize=auto;html=1;endArrow=none;endFill=0;" parent="1" source="nUvGmeNd-1cFZqoozH3D-28" target="53Fr9ARSWQHSsKV8VobN-6" edge="1">
          <mxGeometry relative="1" as="geometry" />
        </mxCell>
        <mxCell id="nUvGmeNd-1cFZqoozH3D-28" value="Qualification Type" style="whiteSpace=wrap;html=1;align=center;" parent="1" vertex="1">
          <mxGeometry x="445" y="-1060" width="100" height="40" as="geometry" />
        </mxCell>
        <mxCell id="nUvGmeNd-1cFZqoozH3D-34" value="activeMember" style="ellipse;whiteSpace=wrap;html=1;align=center;" parent="1" vertex="1">
          <mxGeometry x="235" y="310" width="100" height="40" as="geometry" />
        </mxCell>
        <mxCell id="nUvGmeNd-1cFZqoozH3D-40" value="shall have" style="shape=rhombus;perimeter=rhombusPerimeter;whiteSpace=wrap;html=1;align=center;" parent="1" vertex="1">
          <mxGeometry x="460" y="-240" width="70" height="50" as="geometry" />
        </mxCell>
        <mxCell id="nUvGmeNd-1cFZqoozH3D-46" style="edgeStyle=orthogonalEdgeStyle;rounded=0;orthogonalLoop=1;jettySize=auto;html=1;entryX=0.5;entryY=0;entryDx=0;entryDy=0;endArrow=ERoneToMany;endFill=0;" parent="1" source="nUvGmeNd-1cFZqoozH3D-44" target="nUvGmeNd-1cFZqoozH3D-10" edge="1">
          <mxGeometry relative="1" as="geometry">
            <mxPoint x="242.5" y="-45" as="sourcePoint" />
          </mxGeometry>
        </mxCell>
        <mxCell id="nUvGmeNd-1cFZqoozH3D-44" value="shall have" style="shape=rhombus;perimeter=rhombusPerimeter;whiteSpace=wrap;html=1;align=center;" parent="1" vertex="1">
          <mxGeometry x="140" y="-85" width="85" height="40" as="geometry" />
        </mxCell>
        <mxCell id="nUvGmeNd-1cFZqoozH3D-50" style="edgeStyle=orthogonalEdgeStyle;rounded=0;orthogonalLoop=1;jettySize=auto;html=1;entryX=1;entryY=0.5;entryDx=0;entryDy=0;endArrow=ERoneToMany;endFill=0;" parent="1" source="nUvGmeNd-1cFZqoozH3D-49" target="2XC-__sGIWEo_h4CQZG6-78" edge="1">
          <mxGeometry relative="1" as="geometry" />
        </mxCell>
        <mxCell id="nUvGmeNd-1cFZqoozH3D-51" style="edgeStyle=orthogonalEdgeStyle;rounded=0;orthogonalLoop=1;jettySize=auto;html=1;exitX=1;exitY=0.5;exitDx=0;exitDy=0;endArrow=ERone;endFill=0;entryX=0;entryY=0.5;entryDx=0;entryDy=0;" parent="1" source="nUvGmeNd-1cFZqoozH3D-49" target="nUvGmeNd-1cFZqoozH3D-28" edge="1">
          <mxGeometry relative="1" as="geometry">
            <mxPoint x="440" y="-1020" as="targetPoint" />
          </mxGeometry>
        </mxCell>
        <mxCell id="nUvGmeNd-1cFZqoozH3D-49" value="shall have" style="shape=rhombus;perimeter=rhombusPerimeter;whiteSpace=wrap;html=1;align=center;" parent="1" vertex="1">
          <mxGeometry x="262.5" y="-1070" width="120" height="60" as="geometry" />
        </mxCell>
        <mxCell id="nUvGmeNd-1cFZqoozH3D-53" style="edgeStyle=orthogonalEdgeStyle;rounded=0;orthogonalLoop=1;jettySize=auto;html=1;exitX=0;exitY=0.5;exitDx=0;exitDy=0;entryX=1;entryY=0.5;entryDx=0;entryDy=0;endArrow=ERoneToMany;endFill=0;" parent="1" source="nUvGmeNd-1cFZqoozH3D-52" target="2XC-__sGIWEo_h4CQZG6-54" edge="1">
          <mxGeometry relative="1" as="geometry" />
        </mxCell>
        <mxCell id="nUvGmeNd-1cFZqoozH3D-54" style="edgeStyle=orthogonalEdgeStyle;rounded=0;orthogonalLoop=1;jettySize=auto;html=1;exitX=1;exitY=0.5;exitDx=0;exitDy=0;entryX=0;entryY=0.5;entryDx=0;entryDy=0;endArrow=ERone;endFill=0;" parent="1" source="nUvGmeNd-1cFZqoozH3D-52" target="qzLRw00x2EBnMvrKDf3v-15" edge="1">
          <mxGeometry relative="1" as="geometry" />
        </mxCell>
        <mxCell id="nUvGmeNd-1cFZqoozH3D-52" value="shall have" style="shape=rhombus;perimeter=rhombusPerimeter;whiteSpace=wrap;html=1;align=center;" parent="1" vertex="1">
          <mxGeometry x="210" y="-750" width="120" height="60" as="geometry" />
        </mxCell>
        <mxCell id="a81ULzeU6N-q9SvySfn3-19" style="edgeStyle=orthogonalEdgeStyle;rounded=0;orthogonalLoop=1;jettySize=auto;html=1;entryX=0.5;entryY=1;entryDx=0;entryDy=0;endArrow=none;endFill=0;" parent="1" source="a81ULzeU6N-q9SvySfn3-1" target="QJvTNlsDnHP9_tK7JuTX-30" edge="1">
          <mxGeometry relative="1" as="geometry">
            <Array as="points">
              <mxPoint x="205" y="380" />
            </Array>
          </mxGeometry>
        </mxCell>
        <mxCell id="a81ULzeU6N-q9SvySfn3-1" value="sortOrder" style="ellipse;whiteSpace=wrap;html=1;align=center;" parent="1" vertex="1">
          <mxGeometry x="235" y="360" width="100" height="40" as="geometry" />
        </mxCell>
        <mxCell id="a81ULzeU6N-q9SvySfn3-76" style="edgeStyle=orthogonalEdgeStyle;rounded=0;orthogonalLoop=1;jettySize=auto;html=1;exitX=0.5;exitY=0;exitDx=0;exitDy=0;entryX=0.25;entryY=1;entryDx=0;entryDy=0;endArrow=none;endFill=0;" parent="1" source="a81ULzeU6N-q9SvySfn3-3" target="nUvGmeNd-1cFZqoozH3D-10" edge="1">
          <mxGeometry relative="1" as="geometry">
            <mxPoint x="320" y="120" as="sourcePoint" />
          </mxGeometry>
        </mxCell>
        <mxCell id="a81ULzeU6N-q9SvySfn3-3" value="groupImage" style="ellipse;whiteSpace=wrap;html=1;align=center;" parent="1" vertex="1">
          <mxGeometry x="262.5" y="120" width="100" height="40" as="geometry" />
        </mxCell>
        <mxCell id="a81ULzeU6N-q9SvySfn3-6" value="orgID" style="ellipse;whiteSpace=wrap;html=1;align=center;fontStyle=4;" parent="1" vertex="1">
          <mxGeometry x="300" y="-200" width="100" height="40" as="geometry" />
        </mxCell>
        <mxCell id="a81ULzeU6N-q9SvySfn3-9" value="" style="edgeStyle=orthogonalEdgeStyle;rounded=0;orthogonalLoop=1;jettySize=auto;html=1;endArrow=none;endFill=0;entryX=1;entryY=0.75;entryDx=0;entryDy=0;" parent="1" source="a81ULzeU6N-q9SvySfn3-8" target="qzLRw00x2EBnMvrKDf3v-19" edge="1">
          <mxGeometry relative="1" as="geometry" />
        </mxCell>
        <mxCell id="a81ULzeU6N-q9SvySfn3-8" value="&lt;span style=&quot;border-bottom: 1px dotted&quot;&gt;orgOwner&lt;/span&gt;" style="ellipse;whiteSpace=wrap;html=1;align=center;" parent="1" vertex="1">
          <mxGeometry x="490" y="-120" width="100" height="40" as="geometry" />
        </mxCell>
        <mxCell id="a81ULzeU6N-q9SvySfn3-12" style="edgeStyle=orthogonalEdgeStyle;rounded=0;orthogonalLoop=1;jettySize=auto;html=1;entryX=0.5;entryY=1;entryDx=0;entryDy=0;curved=1;endArrow=none;endFill=0;" parent="1" source="a81ULzeU6N-q9SvySfn3-11" target="f8IEIEPdvuGG4pA07hkH-3" edge="1">
          <mxGeometry relative="1" as="geometry">
            <mxPoint x="-560" y="210" as="targetPoint" />
          </mxGeometry>
        </mxCell>
        <mxCell id="a81ULzeU6N-q9SvySfn3-11" value="lasName" style="ellipse;whiteSpace=wrap;html=1;align=center;" parent="1" vertex="1">
          <mxGeometry x="-505" y="310" width="100" height="40" as="geometry" />
        </mxCell>
        <mxCell id="a81ULzeU6N-q9SvySfn3-14" style="edgeStyle=orthogonalEdgeStyle;rounded=0;orthogonalLoop=1;jettySize=auto;html=1;endArrow=none;endFill=0;" parent="1" source="a81ULzeU6N-q9SvySfn3-13" target="f8IEIEPdvuGG4pA07hkH-3" edge="1">
          <mxGeometry relative="1" as="geometry" />
        </mxCell>
        <mxCell id="a81ULzeU6N-q9SvySfn3-13" value="userID" style="ellipse;whiteSpace=wrap;html=1;align=center;fontStyle=4;" parent="1" vertex="1">
          <mxGeometry x="-615" y="340" width="100" height="40" as="geometry" />
        </mxCell>
        <mxCell id="a81ULzeU6N-q9SvySfn3-16" style="edgeStyle=orthogonalEdgeStyle;rounded=0;orthogonalLoop=1;jettySize=auto;html=1;exitX=0;exitY=0.5;exitDx=0;exitDy=0;entryX=1;entryY=0.25;entryDx=0;entryDy=0;endArrow=none;endFill=0;" parent="1" source="a81ULzeU6N-q9SvySfn3-15" target="qzLRw00x2EBnMvrKDf3v-22" edge="1">
          <mxGeometry relative="1" as="geometry" />
        </mxCell>
        <mxCell id="a81ULzeU6N-q9SvySfn3-15" value="commentID" style="ellipse;whiteSpace=wrap;html=1;align=center;fontStyle=4;" parent="1" vertex="1">
          <mxGeometry x="-460" y="-135" width="100" height="40" as="geometry" />
        </mxCell>
        <mxCell id="a81ULzeU6N-q9SvySfn3-18" style="edgeStyle=orthogonalEdgeStyle;rounded=0;orthogonalLoop=1;jettySize=auto;html=1;exitX=0.5;exitY=0;exitDx=0;exitDy=0;endArrow=none;endFill=0;entryX=0.25;entryY=1;entryDx=0;entryDy=0;" parent="1" source="a81ULzeU6N-q9SvySfn3-17" target="qzLRw00x2EBnMvrKDf3v-20" edge="1">
          <mxGeometry relative="1" as="geometry" />
        </mxCell>
        <mxCell id="a81ULzeU6N-q9SvySfn3-17" value="customSec_ID" style="ellipse;whiteSpace=wrap;html=1;align=center;fontStyle=4;" parent="1" vertex="1">
          <mxGeometry x="-625" y="-280" width="100" height="40" as="geometry" />
        </mxCell>
        <mxCell id="a81ULzeU6N-q9SvySfn3-22" style="edgeStyle=orthogonalEdgeStyle;rounded=0;orthogonalLoop=1;jettySize=auto;html=1;endArrow=none;endFill=0;exitX=0.5;exitY=0;exitDx=0;exitDy=0;" parent="1" source="a81ULzeU6N-q9SvySfn3-21" target="2XC-__sGIWEo_h4CQZG6-78" edge="1">
          <mxGeometry relative="1" as="geometry">
            <Array as="points">
              <mxPoint x="118" y="-850" />
              <mxPoint x="118" y="-850" />
            </Array>
          </mxGeometry>
        </mxCell>
        <mxCell id="a81ULzeU6N-q9SvySfn3-21" value="qualInstanceID" style="ellipse;whiteSpace=wrap;html=1;align=center;fontStyle=4;" parent="1" vertex="1">
          <mxGeometry x="67.5" y="-850" width="100" height="40" as="geometry" />
        </mxCell>
        <mxCell id="a81ULzeU6N-q9SvySfn3-24" style="edgeStyle=orthogonalEdgeStyle;rounded=0;orthogonalLoop=1;jettySize=auto;html=1;exitX=0.5;exitY=1;exitDx=0;exitDy=0;entryX=0;entryY=0;entryDx=0;entryDy=0;endArrow=none;endFill=0;" parent="1" source="a81ULzeU6N-q9SvySfn3-23" target="qzLRw00x2EBnMvrKDf3v-21" edge="1">
          <mxGeometry relative="1" as="geometry">
            <Array as="points">
              <mxPoint x="260" y="-290" />
            </Array>
          </mxGeometry>
        </mxCell>
        <mxCell id="a81ULzeU6N-q9SvySfn3-23" value="eventReminderID" style="ellipse;whiteSpace=wrap;html=1;align=center;fontStyle=4;" parent="1" vertex="1">
          <mxGeometry x="210" y="-350" width="100" height="40" as="geometry" />
        </mxCell>
        <mxCell id="a81ULzeU6N-q9SvySfn3-51" style="edgeStyle=orthogonalEdgeStyle;rounded=0;orthogonalLoop=1;jettySize=auto;html=1;exitX=0.5;exitY=0;exitDx=0;exitDy=0;entryX=0.5;entryY=1;entryDx=0;entryDy=0;endArrow=none;endFill=0;" parent="1" source="a81ULzeU6N-q9SvySfn3-25" target="2XC-__sGIWEo_h4CQZG6-54" edge="1">
          <mxGeometry relative="1" as="geometry">
            <Array as="points">
              <mxPoint x="120" y="-530" />
            </Array>
          </mxGeometry>
        </mxCell>
        <mxCell id="a81ULzeU6N-q9SvySfn3-25" value="awardinstanceID" style="ellipse;whiteSpace=wrap;html=1;align=center;fontStyle=4;" parent="1" vertex="1">
          <mxGeometry x="68" y="-530" width="100" height="40" as="geometry" />
        </mxCell>
        <mxCell id="a81ULzeU6N-q9SvySfn3-27" value="qualificationID" style="ellipse;whiteSpace=wrap;html=1;align=center;fontStyle=4;" parent="1" vertex="1">
          <mxGeometry x="365.25" y="-980" width="100" height="40" as="geometry" />
        </mxCell>
        <mxCell id="a81ULzeU6N-q9SvySfn3-28" value="awardID" style="ellipse;whiteSpace=wrap;html=1;align=center;fontStyle=4;" parent="1" vertex="1">
          <mxGeometry x="300" y="-650" width="100" height="40" as="geometry" />
        </mxCell>
        <mxCell id="a81ULzeU6N-q9SvySfn3-30" value="&lt;span style=&quot;border-bottom: 1px dotted&quot;&gt;reciever&lt;/span&gt;" style="ellipse;whiteSpace=wrap;html=1;align=center;" parent="1" vertex="1">
          <mxGeometry x="-22.5" y="-950" width="100" height="40" as="geometry" />
        </mxCell>
        <mxCell id="a81ULzeU6N-q9SvySfn3-31" value="&lt;span style=&quot;border-bottom: 1px dotted&quot;&gt;Issuer&lt;/span&gt;" style="ellipse;whiteSpace=wrap;html=1;align=center;" parent="1" vertex="1">
          <mxGeometry x="155" y="-950" width="100" height="40" as="geometry" />
        </mxCell>
        <mxCell id="a81ULzeU6N-q9SvySfn3-33" style="edgeStyle=orthogonalEdgeStyle;rounded=0;orthogonalLoop=1;jettySize=auto;html=1;exitX=0;exitY=0.5;exitDx=0;exitDy=0;endArrow=none;endFill=0;" parent="1" source="a81ULzeU6N-q9SvySfn3-32" target="2XC-__sGIWEo_h4CQZG6-78" edge="1">
          <mxGeometry relative="1" as="geometry" />
        </mxCell>
        <mxCell id="a81ULzeU6N-q9SvySfn3-32" value="&lt;span style=&quot;border-bottom: 1px dotted&quot;&gt;qualType&lt;/span&gt;" style="ellipse;whiteSpace=wrap;html=1;align=center;" parent="1" vertex="1">
          <mxGeometry x="155" y="-900" width="100" height="40" as="geometry" />
        </mxCell>
        <mxCell id="a81ULzeU6N-q9SvySfn3-37" style="edgeStyle=orthogonalEdgeStyle;rounded=0;orthogonalLoop=1;jettySize=auto;html=1;exitX=1;exitY=0.5;exitDx=0;exitDy=0;entryX=0.5;entryY=1;entryDx=0;entryDy=0;endArrow=none;endFill=0;" parent="1" source="a81ULzeU6N-q9SvySfn3-34" target="2XC-__sGIWEo_h4CQZG6-78" edge="1">
          <mxGeometry relative="1" as="geometry" />
        </mxCell>
        <mxCell id="a81ULzeU6N-q9SvySfn3-34" value="nominationStatus" style="ellipse;whiteSpace=wrap;html=1;align=center;" parent="1" vertex="1">
          <mxGeometry x="-22" y="-900" width="100" height="40" as="geometry" />
        </mxCell>
        <mxCell id="a81ULzeU6N-q9SvySfn3-49" style="edgeStyle=orthogonalEdgeStyle;rounded=0;orthogonalLoop=1;jettySize=auto;html=1;exitX=0;exitY=0.5;exitDx=0;exitDy=0;endArrow=none;endFill=0;" parent="1" source="a81ULzeU6N-q9SvySfn3-38" edge="1">
          <mxGeometry relative="1" as="geometry">
            <mxPoint x="120" y="-700" as="targetPoint" />
          </mxGeometry>
        </mxCell>
        <mxCell id="a81ULzeU6N-q9SvySfn3-38" value="&lt;span style=&quot;border-bottom: 1px dotted&quot;&gt;awardType&lt;/span&gt;" style="ellipse;whiteSpace=wrap;html=1;align=center;" parent="1" vertex="1">
          <mxGeometry x="140" y="-580" width="100" height="40" as="geometry" />
        </mxCell>
        <mxCell id="a81ULzeU6N-q9SvySfn3-48" style="edgeStyle=orthogonalEdgeStyle;rounded=0;orthogonalLoop=1;jettySize=auto;html=1;exitX=1;exitY=0.5;exitDx=0;exitDy=0;entryX=0.5;entryY=1;entryDx=0;entryDy=0;endArrow=none;endFill=0;" parent="1" source="a81ULzeU6N-q9SvySfn3-39" target="2XC-__sGIWEo_h4CQZG6-54" edge="1">
          <mxGeometry relative="1" as="geometry" />
        </mxCell>
        <mxCell id="a81ULzeU6N-q9SvySfn3-39" value="nominationStatus" style="ellipse;whiteSpace=wrap;html=1;align=center;" parent="1" vertex="1">
          <mxGeometry x="-10" y="-580" width="100" height="40" as="geometry" />
        </mxCell>
        <mxCell id="a81ULzeU6N-q9SvySfn3-45" style="edgeStyle=orthogonalEdgeStyle;rounded=0;orthogonalLoop=1;jettySize=auto;html=1;exitX=1;exitY=0.5;exitDx=0;exitDy=0;entryX=0.5;entryY=1;entryDx=0;entryDy=0;endArrow=none;endFill=0;" parent="1" source="a81ULzeU6N-q9SvySfn3-43" target="2XC-__sGIWEo_h4CQZG6-54" edge="1">
          <mxGeometry relative="1" as="geometry" />
        </mxCell>
        <mxCell id="a81ULzeU6N-q9SvySfn3-43" value="&lt;span style=&quot;border-bottom: 1px dotted&quot;&gt;reciever&lt;/span&gt;" style="ellipse;whiteSpace=wrap;html=1;align=center;" parent="1" vertex="1">
          <mxGeometry x="-10" y="-630" width="100" height="40" as="geometry" />
        </mxCell>
        <mxCell id="a81ULzeU6N-q9SvySfn3-46" style="edgeStyle=orthogonalEdgeStyle;rounded=0;orthogonalLoop=1;jettySize=auto;html=1;exitX=0;exitY=0.5;exitDx=0;exitDy=0;entryX=0.5;entryY=1;entryDx=0;entryDy=0;endArrow=none;endFill=0;" parent="1" source="a81ULzeU6N-q9SvySfn3-44" target="2XC-__sGIWEo_h4CQZG6-54" edge="1">
          <mxGeometry relative="1" as="geometry" />
        </mxCell>
        <mxCell id="a81ULzeU6N-q9SvySfn3-44" value="&lt;span style=&quot;border-bottom: 1px dotted&quot;&gt;Issuer&lt;/span&gt;" style="ellipse;whiteSpace=wrap;html=1;align=center;" parent="1" vertex="1">
          <mxGeometry x="140" y="-630" width="100" height="40" as="geometry" />
        </mxCell>
        <mxCell id="a81ULzeU6N-q9SvySfn3-55" style="edgeStyle=orthogonalEdgeStyle;rounded=0;orthogonalLoop=1;jettySize=auto;html=1;exitX=0.5;exitY=0;exitDx=0;exitDy=0;endArrow=none;endFill=0;" parent="1" source="a81ULzeU6N-q9SvySfn3-53" target="qzLRw00x2EBnMvrKDf3v-20" edge="1">
          <mxGeometry relative="1" as="geometry" />
        </mxCell>
        <mxCell id="a81ULzeU6N-q9SvySfn3-53" value="&lt;span style=&quot;border-bottom: 1px dotted&quot;&gt;docCreator&lt;/span&gt;" style="ellipse;whiteSpace=wrap;html=1;align=center;" parent="1" vertex="1">
          <mxGeometry x="-505" y="-270" width="100" height="40" as="geometry" />
        </mxCell>
        <mxCell id="a81ULzeU6N-q9SvySfn3-56" style="edgeStyle=orthogonalEdgeStyle;rounded=0;orthogonalLoop=1;jettySize=auto;html=1;exitX=0;exitY=0.5;exitDx=0;exitDy=0;entryX=0.75;entryY=1;entryDx=0;entryDy=0;endArrow=none;endFill=0;" parent="1" source="a81ULzeU6N-q9SvySfn3-54" target="qzLRw00x2EBnMvrKDf3v-20" edge="1">
          <mxGeometry relative="1" as="geometry" />
        </mxCell>
        <mxCell id="a81ULzeU6N-q9SvySfn3-54" value="&lt;span style=&quot;border-bottom: 1px dotted&quot;&gt;org&lt;/span&gt;" style="ellipse;whiteSpace=wrap;html=1;align=center;" parent="1" vertex="1">
          <mxGeometry x="-400" y="-310" width="100" height="40" as="geometry" />
        </mxCell>
        <mxCell id="a81ULzeU6N-q9SvySfn3-57" value="&lt;span style=&quot;border-bottom: 1px dotted&quot;&gt;userID&lt;/span&gt;" style="ellipse;whiteSpace=wrap;html=1;align=center;" parent="1" vertex="1">
          <mxGeometry x="-470" y="-70" width="100" height="40" as="geometry" />
        </mxCell>
        <mxCell id="a81ULzeU6N-q9SvySfn3-59" value="memberID" style="ellipse;whiteSpace=wrap;html=1;align=center;fontStyle=4;" parent="1" vertex="1">
          <mxGeometry x="235" y="210" width="100" height="40" as="geometry" />
        </mxCell>
        <mxCell id="a81ULzeU6N-q9SvySfn3-64" style="edgeStyle=orthogonalEdgeStyle;rounded=0;orthogonalLoop=1;jettySize=auto;html=1;exitX=1;exitY=0.5;exitDx=0;exitDy=0;endArrow=none;endFill=0;" parent="1" source="a81ULzeU6N-q9SvySfn3-61" target="QJvTNlsDnHP9_tK7JuTX-30" edge="1">
          <mxGeometry relative="1" as="geometry" />
        </mxCell>
        <mxCell id="a81ULzeU6N-q9SvySfn3-61" value="&lt;span style=&quot;border-bottom: 1px dotted&quot;&gt;org&lt;/span&gt;" style="ellipse;whiteSpace=wrap;html=1;align=center;" parent="1" vertex="1">
          <mxGeometry x="78" y="370" width="100" height="40" as="geometry" />
        </mxCell>
        <mxCell id="a81ULzeU6N-q9SvySfn3-66" style="edgeStyle=orthogonalEdgeStyle;rounded=0;orthogonalLoop=1;jettySize=auto;html=1;exitX=1;exitY=0.5;exitDx=0;exitDy=0;entryX=0.5;entryY=1;entryDx=0;entryDy=0;endArrow=none;endFill=0;" parent="1" source="a81ULzeU6N-q9SvySfn3-62" target="QJvTNlsDnHP9_tK7JuTX-30" edge="1">
          <mxGeometry relative="1" as="geometry" />
        </mxCell>
        <mxCell id="a81ULzeU6N-q9SvySfn3-62" value="&lt;span style=&quot;border-bottom: 1px dotted&quot;&gt;user&lt;/span&gt;" style="ellipse;whiteSpace=wrap;html=1;align=center;" parent="1" vertex="1">
          <mxGeometry x="77.5" y="420" width="100" height="40" as="geometry" />
        </mxCell>
        <mxCell id="a81ULzeU6N-q9SvySfn3-67" style="edgeStyle=orthogonalEdgeStyle;rounded=0;orthogonalLoop=1;jettySize=auto;html=1;exitX=0;exitY=0.5;exitDx=0;exitDy=0;entryX=0.5;entryY=1;entryDx=0;entryDy=0;endArrow=none;endFill=0;" parent="1" source="a81ULzeU6N-q9SvySfn3-63" target="QJvTNlsDnHP9_tK7JuTX-30" edge="1">
          <mxGeometry relative="1" as="geometry" />
        </mxCell>
        <mxCell id="a81ULzeU6N-q9SvySfn3-63" value="&lt;span style=&quot;border-bottom: 1px dotted&quot;&gt;group&lt;/span&gt;" style="ellipse;whiteSpace=wrap;html=1;align=center;" parent="1" vertex="1">
          <mxGeometry x="235" y="410" width="100" height="40" as="geometry" />
        </mxCell>
        <mxCell id="a81ULzeU6N-q9SvySfn3-72" style="edgeStyle=orthogonalEdgeStyle;rounded=0;orthogonalLoop=1;jettySize=auto;html=1;exitX=0;exitY=0;exitDx=0;exitDy=0;entryX=0.75;entryY=1;entryDx=0;entryDy=0;endArrow=none;endFill=0;" parent="1" source="a81ULzeU6N-q9SvySfn3-69" target="nUvGmeNd-1cFZqoozH3D-10" edge="1">
          <mxGeometry relative="1" as="geometry">
            <Array as="points">
              <mxPoint x="385" y="80" />
              <mxPoint x="275" y="80" />
            </Array>
          </mxGeometry>
        </mxCell>
        <mxCell id="a81ULzeU6N-q9SvySfn3-69" value="groupID" style="ellipse;whiteSpace=wrap;html=1;align=center;fontStyle=4;" parent="1" vertex="1">
          <mxGeometry x="370" y="100" width="100" height="40" as="geometry" />
        </mxCell>
        <mxCell id="a81ULzeU6N-q9SvySfn3-77" style="edgeStyle=orthogonalEdgeStyle;rounded=0;orthogonalLoop=1;jettySize=auto;html=1;entryX=1;entryY=0.75;entryDx=0;entryDy=0;endArrow=none;endFill=0;" parent="1" source="a81ULzeU6N-q9SvySfn3-70" target="nUvGmeNd-1cFZqoozH3D-10" edge="1">
          <mxGeometry relative="1" as="geometry" />
        </mxCell>
        <mxCell id="a81ULzeU6N-q9SvySfn3-70" value="&lt;span style=&quot;border-bottom: 1px dotted&quot;&gt;org&lt;/span&gt;" style="ellipse;whiteSpace=wrap;html=1;align=center;" parent="1" vertex="1">
          <mxGeometry x="418" y="30" width="100" height="40" as="geometry" />
        </mxCell>
        <mxCell id="a81ULzeU6N-q9SvySfn3-87" style="edgeStyle=orthogonalEdgeStyle;rounded=0;orthogonalLoop=1;jettySize=auto;html=1;exitX=0.5;exitY=1;exitDx=0;exitDy=0;entryX=0.75;entryY=0;entryDx=0;entryDy=0;endArrow=ERoneToMany;endFill=0;" parent="1" source="a81ULzeU6N-q9SvySfn3-86" target="QJvTNlsDnHP9_tK7JuTX-30" edge="1">
          <mxGeometry relative="1" as="geometry">
            <Array as="points">
              <mxPoint x="178" y="120" />
              <mxPoint x="230" y="120" />
            </Array>
          </mxGeometry>
        </mxCell>
        <mxCell id="a81ULzeU6N-q9SvySfn3-86" value="can have" style="shape=rhombus;html=1;dashed=0;whiteSpace=wrap;perimeter=rhombusPerimeter;" parent="1" vertex="1">
          <mxGeometry x="145" y="70" width="65" height="40" as="geometry" />
        </mxCell>
        <mxCell id="53Fr9ARSWQHSsKV8VobN-5" value="&lt;span style=&quot;border-bottom: 1px dotted&quot;&gt;org&lt;/span&gt;" style="ellipse;whiteSpace=wrap;html=1;align=center;" parent="1" vertex="1">
          <mxGeometry x="380" y="-520" width="100" height="40" as="geometry" />
        </mxCell>
        <mxCell id="53Fr9ARSWQHSsKV8VobN-6" value="&lt;span style=&quot;border-bottom: 1px dotted&quot;&gt;org&lt;/span&gt;" style="ellipse;whiteSpace=wrap;html=1;align=center;" parent="1" vertex="1">
          <mxGeometry x="445" y="-860" width="100" height="40" as="geometry" />
        </mxCell>
        <mxCell id="vfzTJ_OIsUuN2xthzxCM-2" style="edgeStyle=orthogonalEdgeStyle;rounded=0;orthogonalLoop=1;jettySize=auto;html=1;entryX=0;entryY=0.25;entryDx=0;entryDy=0;endArrow=none;endFill=0;" edge="1" parent="1" source="vfzTJ_OIsUuN2xthzxCM-1" target="qzLRw00x2EBnMvrKDf3v-20">
          <mxGeometry relative="1" as="geometry" />
        </mxCell>
        <mxCell id="vfzTJ_OIsUuN2xthzxCM-1" value="type" style="ellipse;whiteSpace=wrap;html=1;align=center;" vertex="1" parent="1">
          <mxGeometry x="-700" y="-400" width="100" height="40" as="geometry" />
        </mxCell>
      </root>
    </mxGraphModel>
  </diagram>
</mxfile>
